#!OML:ASF H:\Not Pregnant\Project 1\Capture day 1\Session 1\non-pregnant.ASF
:FULLY-SPECIFIED
:DEGREES
229
root 6.00716 14.6987 29.7947 20.7565 -62.6232 -7.50086
lowerback 8.30805 0.389515 3.39166
upperback -8.45457 0.981366 0.499762
thorax -13.9325 0.106622 -1.53625
lowerneck 20.4563 -11.5319 -29.8774
upperneck -16.9685 -20.0177 41.1764
head 0.224317 -12.6321 20.541
rclavicle 3.27329e-014 1.04362e-014
rhumerus -17.9311 4.62238 -81.9571
rradius 95.4466
rwrist 34.1276
rhand 4.72968 8.92804
rfingers 7.12502
rthumb 30.1121 -18.6389
lclavicle 3.27329e-014 1.04362e-014
lhumerus -25.4558 -6.5972 76.8321
lradius 96.2484
lwrist 7.57203
lhand 2.64083 -15.2293
lfingers 7.12502
lthumb 28.1173 12.6828
rfemur -42.3677 0.122208 23.0001
rtibia 59.9209
rfoot -29.1107 -4.30868
rtoes -13.5322
lfemur -45.2318 3.94764 -17.5416
ltibia 59.757
lfoot -26.5936 1.96415
ltoes -14.8199
230
root 6.00573 14.699 29.7928 20.7822 -62.6041 -7.51093
lowerback 8.30445 0.38842 3.40228
upperback -8.46138 0.981798 0.504493
thorax -13.9384 0.105784 -1.53699
lowerneck 20.5267 -11.5589 -29.843
upperneck -17.299 -20.0033 41.3088
head 0.141897 -12.6511 20.6381
rclavicle -3.07705e-014 -1.65985e-014
rhumerus -17.9859 4.58649 -81.966
rradius 95.4566
rwrist 34.0873
rhand 4.74884 8.90632
rfingers 7.12502
rthumb 30.1304 -18.6573
lclavicle -3.07705e-014 -1.65985e-014
lhumerus -25.4874 -6.62711 76.8843
lradius 96.2438
lwrist 7.59688
lhand 2.63534 -15.2068
lfingers 7.12502
lthumb 28.112 12.7062
rfemur -42.3822 0.115535 23.0198
rtibia 59.9199
rfoot -29.1076 -4.31326
rtoes -13.5252
lfemur -45.2516 3.93884 -17.5227
ltibia 59.7569
lfoot -26.597 1.95178
ltoes -14.7752
231
root 6.00447 14.6994 29.7909 20.8023 -62.588 -7.51225
lowerback 8.29834 0.388255 3.41131
upperback -8.46766 0.98271 0.505542
thorax -13.9419 0.105148 -1.54099
lowerneck 20.5948 -11.5827 -29.8154
upperneck -17.6145 -19.9895 41.445
head 0.0656342 -12.6705 20.7384
rclavicle 1.54701e-014 -2.98177e-016
rhumerus -18.0357 4.55269 -81.9836
rradius 95.4637
rwrist 34.0621
rhand 4.76164 8.87786
rfingers 7.12502
rthumb 30.1426 -18.6835
lclavicle 1.54701e-014 -2.98177e-016
lhumerus -25.5099 -6.65867 76.9298
lradius 96.2354
lwrist 7.61351
lhand 2.64817 -15.1764
lfingers 7.12502
lthumb 28.1243 12.7346
rfemur -42.4 0.1092 23.0341
rtibia 59.9196
rfoot -29.1054 -4.31599
rtoes -13.5157
lfemur -45.2721 3.92788 -17.5086
ltibia 59.7528
lfoot -26.5953 1.94247
ltoes -14.7378
232
root 6.00339 14.6998 29.7889 20.7993 -62.575 -7.49088
lowerback 8.29532 0.388747 3.4117
upperback -8.4722 0.982747 0.500871
thorax -13.9453 0.104657 -1.54633
lowerneck 20.6594 -11.6067 -29.7842
upperneck -17.9156 -19.9768 41.5774
head -0.00699003 -12.6901 20.8352
rclavicle 5.03918e-014 -4.07509e-015
rhumerus -18.0802 4.5132 -82.0134
rradius 95.466
rwrist 34.056
rhand 4.76789 8.84864
rfingers 7.12502
rthumb 30.1486 -18.7116
lclavicle 5.03918e-014 -4.07509e-015
lhumerus -25.5231 -6.69087 76.9682
lradius 96.2234
lwrist 7.62088
lhand 2.67783 -15.1431
lfingers 7.12502
lthumb 28.1527 12.7632
rfemur -42.4177 0.100623 23.036
rtibia 59.9224
rfoot -29.1052 -4.31382
rtoes -13.4931
lfemur -45.2877 3.91452 -17.5064
ltibia 59.7445
lfoot -26.5902 1.93616
ltoes -14.7155
233
root 6.00246 14.7003 29.787 20.7806 -62.5646 -7.45444
lowerback 8.29489 0.38823 3.40614
upperback -8.47655 0.980501 0.494897
thorax -13.9503 0.103585 -1.54937
lowerneck 20.7204 -11.6296 -29.754
upperneck -18.2005 -19.9651 41.7028
head -0.0755636 -12.709 20.9276
rclavicle -2.39999e-014 1.0138e-014
rhumerus -18.1228 4.48453 -82.0455
rradius 95.465
rwrist 34.0589
rhand 4.77121 8.81428
rfingers 7.12502
rthumb 30.1517 -18.7454
lclavicle -2.39999e-014 1.0138e-014
lhumerus -25.5335 -6.71458 77.0011
lradius 96.2094
lwrist 7.61624
lhand 2.72781 -15.1096
lfingers 7.12502
lthumb 28.2004 12.7889
rfemur -42.4348 0.0887945 23.0298
rtibia 59.9276
rfoot -29.1055 -4.31033
rtoes -13.4725
lfemur -45.2978 3.89654 -17.5127
ltibia 59.7317
lfoot -26.5804 1.94301
ltoes -14.7263
234
root 6.00168 14.7008 29.7851 20.7428 -62.5558 -7.4011
lowerback 8.29994 0.386037 3.39327
upperback -8.4808 0.974963 0.487219
thorax -13.9587 0.101533 -1.5496
lowerneck 20.7777 -11.6518 -29.719
upperneck -18.4697 -19.9527 41.8189
head -0.142133 -12.7264 21.0136
rclavicle -3.07039e-015 -9.83984e-015
rhumerus -18.1618 4.46194 -82.082
rradius 95.4582
rwrist 34.0702
rhand 4.77878 8.78089
rfingers 7.12502
rthumb 30.1589 -18.7775
lclavicle -3.07039e-015 -9.83984e-015
lhumerus -25.5405 -6.7335 77.0266
lradius 96.1925
lwrist 7.60587
lhand 2.79157 -15.0837
lfingers 7.12502
lthumb 28.2614 12.8047
rfemur -42.4492 0.0729943 23.0154
rtibia 59.9337
rfoot -29.1065 -4.30695
rtoes -13.4594
lfemur -45.3023 3.87708 -17.5284
ltibia 59.7162
lfoot -26.569 1.95791
ltoes -14.7627
235
root 6.00101 14.7013 29.7831 20.6948 -62.5485 -7.33885
lowerback 8.30836 0.381814 3.3748
upperback -8.48547 0.966073 0.480331
thorax -13.9701 0.0984566 -1.54519
lowerneck 20.8285 -11.6733 -29.6788
upperneck -18.7205 -19.9392 41.9226
head -0.206315 -12.7413 21.0907
rclavicle -1.11112e-014 9.44227e-015
rhumerus -18.1986 4.45145 -82.1158
rradius 95.4483
rwrist 34.0833
rhand 4.78986 8.75234
rfingers 7.12502
rthumb 30.1695 -18.8041
lclavicle -1.11112e-014 9.44227e-015
lhumerus -25.5463 -6.74711 77.0454
lradius 96.1731
lwrist 7.58538
lhand 2.85311 -15.056
lfingers 7.12502
lthumb 28.3202 12.8227
rfemur -42.4617 0.0521001 22.9979
rtibia 59.9381
rfoot -29.107 -4.30323
rtoes -13.4541
lfemur -45.3029 3.85582 -17.5489
ltibia 59.6996
lfoot -26.5561 1.9818
ltoes -14.8175
